<?xml version="1.0" encoding="UTF-8" standalone="no"?>
<!-- Created with Inkscape (http://www.inkscape.org/) -->
<svg
   xmlns:dc="http://purl.org/dc/elements/1.1/"
   xmlns:cc="http://creativecommons.org/ns#"
   xmlns:rdf="http://www.w3.org/1999/02/22-rdf-syntax-ns#"
   xmlns:svg="http://www.w3.org/2000/svg"
   xmlns="http://www.w3.org/2000/svg"
   xmlns:sodipodi="http://sodipodi.sourceforge.net/DTD/sodipodi-0.dtd"
   xmlns:inkscape="http://www.inkscape.org/namespaces/inkscape"
   version="1.0"
   width="167.59819"
   height="124.73653"
   id="svg2"
   xml:space="preserve"
   style="fill-rule:evenodd"
   sodipodi:version="0.32"
   inkscape:version="0.46"
   sodipodi:docname="headphone.svg"
   inkscape:output_extension="org.inkscape.output.svg.inkscape"><metadata
   id="metadata19"><rdf:RDF><cc:Work
       rdf:about=""><dc:format>image/svg+xml</dc:format><dc:type
         rdf:resource="http://purl.org/dc/dcmitype/StillImage" /></cc:Work></rdf:RDF></metadata><sodipodi:namedview
   inkscape:window-height="778"
   inkscape:window-width="1280"
   inkscape:pageshadow="2"
   inkscape:pageopacity="0.0"
   guidetolerance="10.0"
   gridtolerance="10.0"
   objecttolerance="10.0"
   borderopacity="1.0"
   bordercolor="#666666"
   pagecolor="#ffffff"
   id="base"
   showgrid="false"
   units="mm"
   inkscape:zoom="3.6533333"
   inkscape:cx="101.59599"
   inkscape:cy="32.924187"
   inkscape:window-x="-5"
   inkscape:window-y="-3"
   inkscape:current-layer="Laag_x0020_1" />
 <defs
   id="defs4"><inkscape:perspective
   sodipodi:type="inkscape:persp3d"
   inkscape:vp_x="0 : 221 : 1"
   inkscape:vp_y="0 : 1000 : 0"
   inkscape:vp_z="600 : 221 : 1"
   inkscape:persp3d-origin="300 : 147.33333 : 1"
   id="perspective21" />
  <style
   type="text/css"
   id="style6" />
 </defs>
 <g
   transform="matrix(1.2708253,0,0,1.2708253,-53.936987,-51.893193)"
   id="Laag_x0020_1">












 <rect
   width="8.5801935"
   height="38.610954"
   x="153.92976"
   y="58.443367"
   transform="matrix(0.9659258,0.258819,-0.2588187,0.9659259,0,0)"
   id="rect2537"
   style="fill:#da251d;fill-rule:evenodd" /><path
   d="M 133.92534,136.36265 L 133.92526,136.36265 L 143.91851,99.067415 L 143.91859,99.067455 C 154.21564,101.82654 160.32863,112.41462 157.56959,122.71165 C 154.8105,133.0087 144.22238,139.12173 133.92534,136.36265 L 133.92534,136.36265 z"
   id="path2539"
   style="fill:#000000;fill-rule:evenodd" /><circle
   cx="0"
   cy="0"
   r="16.7346"
   transform="matrix(0.2476255,6.635101e-2,-6.635101e-2,0.2476255,137.70234,97.402165)"
   id="circle2541"
   style="fill:#da251d;fill-rule:evenodd"
   sodipodi:cx="0"
   sodipodi:cy="0"
   sodipodi:rx="16.7346"
   sodipodi:ry="16.7346" /><circle
   cx="0"
   cy="0"
   r="16.7346"
   transform="matrix(0.2476255,6.635101e-2,-6.635101e-2,0.2476255,127.70942,134.69723)"
   id="circle2543"
   style="fill:#da251d;fill-rule:evenodd"
   sodipodi:cx="0"
   sodipodi:cy="0"
   sodipodi:rx="16.7346"
   sodipodi:ry="16.7346" /><rect
   width="8.5801935"
   height="38.610954"
   x="-52.287708"
   y="113.69917"
   transform="matrix(-0.9659258,0.258819,0.2588187,0.9659259,0,0)"
   id="rect2545"
   style="fill:#28166f;fill-rule:evenodd" /><path
   d="M 79.567102,136.36265 L 79.567191,136.36265 L 69.573932,99.067415 L 69.573844,99.067455 C 59.276808,101.82654 53.163814,112.41462 55.922858,122.71165 C 58.681942,133.0087 69.270066,139.12173 79.567102,136.36265 L 79.567102,136.36265 z"
   id="path2547"
   style="fill:#000000;fill-rule:evenodd" /><circle
   cx="0"
   cy="0"
   r="16.7346"
   transform="matrix(-0.2476255,6.635101e-2,6.635101e-2,0.2476255,75.789591,97.402165)"
   id="circle2549"
   style="fill:#28166f;fill-rule:evenodd"
   sodipodi:cx="0"
   sodipodi:cy="0"
   sodipodi:rx="16.7346"
   sodipodi:ry="16.7346" /><circle
   cx="0"
   cy="0"
   r="16.7346"
   transform="matrix(-0.2476255,6.635101e-2,6.635101e-2,0.2476255,85.782849,134.69723)"
   id="circle2551"
   style="fill:#28166f;fill-rule:evenodd"
   sodipodi:cx="0"
   sodipodi:cy="0"
   sodipodi:rx="16.7346"
   sodipodi:ry="16.7346" /><path
   d="M 58.897476,102.2341 C 57.926371,98.373405 57.410143,94.331875 57.410143,90.170315 C 57.410143,62.927372 79.503269,40.834246 106.74622,40.834246 C 133.98918,40.834246 156.0823,62.927372 156.0823,90.170315 C 156.0823,94.206695 155.59675,98.130115 154.6815,101.88518 C 153.03436,100.24637 151.09292,98.903365 148.94393,97.941225 C 149.40567,95.421045 149.64716,92.823745 149.64716,90.170315 C 149.64716,66.48077 130.43578,47.269388 106.74622,47.269388 C 83.056667,47.269388 63.845285,66.48077 63.845285,90.170315 C 63.845285,92.887835 64.09836,95.546445 64.58211,98.123725 C 62.441052,99.141035 60.516562,100.54011 58.897476,102.2341 L 58.897476,102.2341 z"
   id="path2553"
   style="fill:#000000;fill-rule:evenodd" /><path
   d="M 174.32386,125.11188 L 171.88439,125.11188 L 167.15121,119.49426 L 164.51083,119.49426 L 164.51083,125.11188 L 162.63181,125.11188 L 162.63181,110.98035 L 166.59071,110.98035 C 167.44277,110.98035 168.15548,111.0354 168.72568,111.14557 C 169.29261,111.25574 169.80772,111.45333 170.26132,111.73841 C 170.77316,112.0624 171.17489,112.46734 171.46323,112.9598 C 171.75157,113.449 171.89408,114.07102 171.89408,114.82586 C 171.89408,115.84313 171.63818,116.69515 171.12628,117.38199 C 170.61443,118.06879 169.90815,118.58712 169.0108,118.9338 L 174.32386,125.11188 L 174.32386,125.11188 z M 169.93085,114.95869 C 169.93085,114.5537 169.85959,114.1941 169.71703,113.87986 C 169.57447,113.56561 169.338,113.30318 169.0108,113.08614 C 168.73863,112.90472 168.41469,112.77512 168.0421,112.70386 C 167.66954,112.62934 167.22895,112.59369 166.72353,112.59369 L 164.51083,112.59369 L 164.51083,117.92949 L 166.40929,117.92949 C 167.00539,117.92949 167.52376,117.87766 167.96757,117.77397 C 168.40821,117.66706 168.78398,117.47268 169.09501,117.18761 C 169.38009,116.92192 169.59069,116.61741 169.72673,116.27399 C 169.86281,115.92734 169.93085,115.48997 169.93085,114.95869 L 169.93085,114.95869 z"
   id="path2555"
   style="fill:#000000;fill-rule:nonzero" /><polygon
   points="-19.6158,217.61 -40.4581,217.61 -40.4581,184.67 -36.0782,184.67 -36.0782,213.713 -19.6158,213.713 -19.6158,217.61 "
   transform="matrix(0.4290093,0,0,0.4290093,59.799389,31.755166)"
   id="polygon2557"
   style="fill:#000000;fill-rule:nonzero" /></g>
</svg>