<?xml version="1.0" encoding="utf-8"?>
<!-- Generator: Adobe Illustrator 18.0.0, SVG Export Plug-In . SVG Version: 6.00 Build 0)  -->
<!DOCTYPE svg PUBLIC "-//W3C//DTD SVG 1.1//EN" "http://www.w3.org/Graphics/SVG/1.1/DTD/svg11.dtd">
<svg version="1.1" id="Layer_1" xmlns="http://www.w3.org/2000/svg" xmlns:xlink="http://www.w3.org/1999/xlink" x="0px" y="0px"
	 viewBox="0 0 382.7 382.7" enable-background="new 0 0 382.7 382.7" xml:space="preserve">
<g>
	<g>
		<path fill="#6F6C6D" d="M0.1,383.4c0-126.6,0-253.3-0.1-379.9C0,0.7,0.7,0,3.5,0c126.6,0.1,253.3,0.1,379.9,0.1
			c0.7,1.3,0.4,2.7,0.4,4c0,125,0,250,0,375c0,5.1,0.5,4.6-4.6,4.6c-125,0-250,0-375,0C2.8,383.8,1.4,384.1,0.1,383.4z"/>
		<path fill="#FFFFFF" d="M0.1,383.4c126.3,0,252.5,0,378.8,0.1c3.8,0,4.6-0.9,4.6-4.6c-0.1-126.3-0.1-252.5-0.1-378.8
			c1.5,0.7,0.7,2,0.7,3c0.1,15.6,0,31.2,0,46.8c0,110.3,0,220.6,0.1,330.9c0,2.8-0.6,3.4-3.4,3.4c-125.8-0.1-251.6-0.1-377.3-0.1
			C2.4,384.1,0.9,385,0.1,383.4z"/>
		<path fill="#14A99F" d="M192.2,12.1c58,0,116,0,174,0c5.2,0,5.2,0,5.2,5.3c0,116.3,0,232.6,0,348.8c0,5.2,0,5.2-5.3,5.2
			c-116.3,0-232.6,0-348.8,0c-5.2,0-5.2,0-5.2-5.3c0-116.3,0-232.6,0-348.8c0-5.2,0-5.2,5.3-5.2C75.6,12.1,133.9,12.1,192.2,12.1z"
			/>
		<path fill="#7FB6B2" d="M191.8,24.1c53.9,0,107.8,0,161.7,0c6,0,6,0,6,5.8c0,107.9,0,215.8,0,323.7c0,5.8,0,5.9-6,5.9
			c-107.8,0-215.6,0-323.4,0c-6,0-6,0-6-6.2c0-107.7,0-215.3,0-323c0-1.1,0-2.2,0-3.4c-0.1-2.1,1-2.9,3-2.8c1.2,0,2.5,0,3.7,0
			C84.5,24.1,138.1,24.1,191.8,24.1z"/>
		<path fill="#FFFFFF" d="M347.5,192.2c0,50.2,0,100.3,0,150.5c0,4.9,0,4.9-4.8,4.9c-100.6,0-201.1,0-301.7,0c-5,0-5,0-5-5.1
			c0-100.4,0-200.9,0-301.3c0-5.1,0-5.1,5-5.1c100.6,0,201.1,0,301.7,0c4.8,0,4.8,0,4.8,4.9C347.5,91.4,347.5,141.8,347.5,192.2z"/>
		<path fill="#0B9CA7" d="M90,318.9c3.5-8.9,6.9-17.6,10.3-26.3c6.5-16.7,13.1-33.4,19.5-50.1c1.1-2.9,2.4-4,5.6-4
			c43.8,0.1,87.6,0.1,131.3,0c2.4,0,4.1,0.2,5.2,3c9.6,25,19.5,49.9,29.2,74.8c0.3,0.8,0.5,1.6,0.7,2.6
			C224.5,318.9,157.5,318.9,90,318.9z"/>
		<path fill="#0B9CA7" d="M191.5,62.5c18.6,47.4,37.2,94.9,55.8,142.6c-37.6,0-74.7,0-112.5,0c18.7-47.7,37.2-95.1,55.8-142.5
			C190.8,62.6,191.1,62.5,191.5,62.5z"/>
	</g>
</g>
</svg>
