/* XPM */
static char * logo_labexporl_xpm[] = {
"64 64 144 2",
"  	c None",
". 	c #003399",
"+ 	c #2A55AA",
"@ 	c #6685C2",
"# 	c #2954A9",
"$ 	c #345CAE",
"% 	c #99ADD6",
"& 	c #C3CFE7",
"* 	c #FFFFFF",
"= 	c #C2CEE7",
"- 	c #3860B0",
"; 	c #4268B3",
"> 	c #DDE4F2",
", 	c #DFE5F2",
"' 	c #CCD6EB",
") 	c #0D3E9E",
"! 	c #335CAD",
"~ 	c #6F8CC5",
"{ 	c #6B89C4",
"] 	c #1947A3",
"^ 	c #8EA5D2",
"/ 	c #1846A2",
"( 	c #234FA7",
"_ 	c #B2C1E0",
": 	c #B1C0E0",
"< 	c #214DA6",
"[ 	c #2C56AB",
"} 	c #D8E0EF",
"| 	c #D7DFEF",
"1 	c #597ABC",
"2 	c #093A9C",
"3 	c #1342A1",
"4 	c #859DCE",
"5 	c #D3DCED",
"6 	c #8099CC",
"7 	c #10409F",
"8 	c #2F59AC",
"9 	c #C4D0E7",
"0 	c #3A61B0",
"a 	c #2752A9",
"b 	c #D5DEEE",
"c 	c #B7C5E2",
"d 	c #1F4CA6",
"e 	c #1F4BA5",
"f 	c #D4DCEE",
"g 	c #1C4AA4",
"h 	c #08399C",
"i 	c #5677BB",
"j 	c #EFF2F8",
"k 	c #879FCF",
"l 	c #8AA1D0",
"m 	c #EFF2F9",
"n 	c #ADBDDE",
"o 	c #6A88C3",
"p 	c #E1E7F3",
"q 	c #D0D9EC",
"r 	c #456AB5",
"s 	c #486DB6",
"t 	c #D5DDEE",
"u 	c #B8C7E3",
"v 	c #4F72B9",
"w 	c #06389C",
"x 	c #F0F3F9",
"y 	c #8DA4D1",
"z 	c #97ACD5",
"A 	c #F2F5FA",
"B 	c #B4C3E1",
"C 	c #738FC7",
"D 	c #1A48A3",
"E 	c #1B49A4",
"F 	c #A4B6DB",
"G 	c #728EC7",
"H 	c #0E3E9F",
"I 	c #90A6D3",
"J 	c #4B6FB7",
"K 	c #CDD7EB",
"L 	c #7E97CB",
"M 	c #94AAD4",
"N 	c #375FAF",
"O 	c #7691C8",
"P 	c #89A1D0",
"Q 	c #1645A2",
"R 	c #5B7CBD",
"S 	c #E4E9F4",
"T 	c #3B62B1",
"U 	c #325BAD",
"V 	c #C7D2E8",
"W 	c #A6B7DB",
"X 	c #6E8BC5",
"Y 	c #1544A1",
"Z 	c #A9BADC",
"` 	c #AABBDD",
" .	c #6584C1",
"..	c #2D57AB",
"+.	c #E0E7F3",
"@.	c #EEF1F8",
"#.	c #DBE2F1",
"$.	c #355EAE",
"%.	c #6886C3",
"&.	c #0D3D9E",
"*.	c #2B56AA",
"=.	c #CED7EB",
"-.	c #4369B4",
";.	c #3F65B2",
">.	c #849CCE",
",.	c #2651A8",
"'.	c #D6DEEF",
").	c #A1B4D9",
"!.	c #6483C1",
"~.	c #E6EBF5",
"{.	c #D9E1F0",
"].	c #4E71B8",
"^.	c #CED8EC",
"/.	c #B5C4E1",
"(.	c #2853A9",
"_.	c #1443A1",
":.	c #5C7CBE",
"<.	c #BDCAE5",
"[.	c #95AAD5",
"}.	c #1D4AA5",
"|.	c #D9E0F0",
"1.	c #D1DBED",
"2.	c #5275BA",
"3.	c #E7ECF6",
"4.	c #6B88C4",
"5.	c #9EB1D8",
"6.	c #B1C1E0",
"7.	c #315AAC",
"8.	c #97ACD6",
"9.	c #CAD4EA",
"0.	c #446AB4",
"a.	c #1040A0",
"b.	c #7893C9",
"c.	c #E3E8F4",
"d.	c #5879BC",
"e.	c #0F3F9F",
"f.	c #C0CDE6",
"g.	c #93A8D4",
"h.	c #1B48A4",
"i.	c #6281C0",
"j.	c #88A0CF",
"k.	c #476BB5",
"l.	c #8CA3D1",
"m.	c #7490C7",
". . . . . . . . . . . . . . . . . . . . . . . . . . . . . . . . . . . . . . . . . . . . . . . . . . . . . . . . . . . . . . . . ",
". . . . . . . . . . . . . . . . . . . . . . . . . . + @ @ @ @ @ @ @ @ @ @ @ # . . . . . . . . . . . . . . . . . . . . . . . . . ",
". . . . . . . . . . . . . . . . . . . . . $ % % % % & * * * * * * * * * * * = % - . . . . . . . . . . . . . . . . . . . . . . . ",
". . . . . . . . . . . . . . . . . . . . ; > * * * * * * * * * * * * * * * * * * , ' ' ; . . . . . . . . . . . . . . . . . . . . ",
". . . . . . . . . . . . . . . . ) ! ~ * * * * * * * * * * * * * * * * * * * * * * * * * * * { ) . . . . . . . . . . . . . . . . ",
". . . . . . . . . . . . . . . ] ^ * * * * * * * * * * * * * * * * * * * * * * * * * * * * * * ^ @ / . . . . . . . . . . . . . . ",
". . . . . . . . . . . . . . ( _ * * * * * * * * * * * * * * * * * * * * * * * * * * * * * * * * * : < . . . . . . . . . . . . . ",
". . . . . . . . . . . . . [ } * * * * * * * * * * * * * * * * * * * * * * * * * * * * * * * * * * * | # . . . . . . . . . . . . ",
". . . . . . . . . . . . ! * * * * * * * * * * * * * * * * * * * * * * * * * * * * * * * * * * * * * * * 1 2 . . . . . . . . . . ",
". . . . . . . . . . . 3 4 * * * * * * * * * * * * * * 5 % % % % % % % % 5 * * * * * * * * * * * * * * * * 6 7 . . . . . . . . . ",
". . . . . . . . . . . 8 * * * * * * * * * * * * 9 @ @ 0 . . . . . . . . 0 @ = * * * * * * * * * * * * * * * a . . . . . . . . . ",
". . . . . . . . . . ( b * * * * * * * * * * c ! d . . . . . . . . . . . . . e ! ! c * * * * * * * * * * * * f g . . . . . . . . ",
". . . . . . . . . h i * * * * * * * * * j k . . . . . . . . . . . . . . . . . . . . . l m * * * * * * * * * * * d . . . . . . . ",
". . . . . . . . . a * * * * * * * * * * n . . . . . . . . . . . . . . . . . . . . . . . o p * * * * * * * * * * d . . . . . . . ",
". . . . . . . . . a * * * * * * * * * q r . . . . . . . . . . . . . . . . . . . . . . . . s t * * * * * * * * * d . . . . . . . ",
". . . . . . . . . a * * * * * * * * * : . . . . . . . . . . . . . . . . . . . . . . . . . . u * * * * * * * * v w . . . . . . . ",
". . . . . . . . ( * * * * * * * * * x y . . . . . . . . . . . . . . . . . . . . . . . . . . . z A * * * * t ' g . . . . . . . . ",
". . . . . . . . ( * * * * * * * * * B . . . . . . . . . . . . . . . . . . . . . . . . . . . . . C % % % % D . . . . . . . . . . ",
". . . . . . . . ( * * * * * * * * * B . . . . . . . . . . . . . . . . . . . . . . . . . . . . . . . . . . . . . . . . . . . . . ",
". . . . . . . . ( * * * * * * * * * B . . . . . . . . . . . . . . . . . . . . . . . . . . . . . . . . . . . . . . . . . . . . . ",
". . . . . . . . ( * * * * * * * * * B . . . . . . . . . . . . . . . E F * * * * * * * * G ! H . . . . . . . . . . . . . . . . . ",
". . . . . . . . ( * * * * * * * * * B . . . . . . . . . . . . . $ @ u * * * * * * * * * * * I @ ] . . . . . . . . . . . . . . . ",
". . . . . . . . ( * * * * * * * * * B . . . . . . . . . . . . J K * * * * * * * * * * * * * * * _ ( . . . . . . . . . . . . . . ",
". . . . . . . . ( * * * * * * * * * B . . . . . . . . . . . . L * * * * * * * * * * * * * * * * * } [ . . . . . . . . . . . . . ",
". . . . . . . . ( * * * * * * * * * B . . . . . . . . . . / M * * * * * * * * * * * * * * * * * * * N . . . . . . . . . . . . . ",
". . . . . . . . ( * * * * * * * * * B . . . . . . . . . . O * * * * * * * * * * * * * * * * * * * * N . . . . . . . . . . . . . ",
". . . . . . . . ( * * * * * * * * * B . . . . . . . . . . O * * * * * * * * * * * * * * * * * * * P Q . . . . . . . . . . . . . ",
". . . . . . . . ( * * * * * * * * * B . . . . . . . . . R S * * * * * * * * * * * * * * * * * * * T . . . . . . . . . . . . . . ",
". . . . . . . . ( * * * * * * * * * B . . . . . . . . . G * * * * * * * * * @ . . . k ' ' ' ' ' U . . . . . . . . . . . . . . . ",
". . . . . . . . ( * * * * * * * * * B . . . . . . . . . G * * * * * * * * * @ . . . . . . . . . . . . . . . . . . . . . . . . . ",
". . . . . . . . ( * * * * * * * * * B . . . . . . . . ; V * * * * * * * * W # . . . . . . . . . . . . . . . . . . . . . . . . . ",
". . . . . . . . ( * * * * * * * * * B . . . . . . . . X * * * * * * * * * o . . . . . . . . . . . . . . . . . . . . . . . . . . ",
". . . . . . . . ( * * * * * * * * * & ( . . . . . . . X * * * * * * * * * o . . . . . . . . . . . . . . . . . . . . . . . . . . ",
". . . . . . . . Y Z * * * * * * * * * : . . . . . . . X * * * * * * * * * W # . . . . . . . . . . . . . . . . . . . . . . . . . ",
". . . . . . . . . a * * * * * * * * * : . . . . . . . [ ` * * * * * * * * * @ . . .  .% % ... . . . . . . . . . . . . . . . . . ",
". . . . . . . . . a * * * * * * * * * : . . . . . . . . G * * * * * * * * * +.' ' ' @.* * #.' $.. . . . . . . . . . . . . . . . ",
". . . . . . . . . d t * * * * * * * * * n . . . . . . . R S * * * * * * * * * * * * * * * * * %.&.. . . . . . . . . . . . . . . ",
". . . . . . . . . . *.* * * * * * * * * =.-.. . . . . . . O * * * * * * * * * * * * * * * * * * ;.. . . . . . . . . . . . . . . ",
". . . . . . . . . . *.* * * * * * * * * * Z . . . . . . . O * * * * * * * * * * * * * * * * * * ;.. . . . . . . . . . . . . . . ",
". . . . . . . . . . 2 1 * * * * * * * * * @.>.. . . . . . / M * * * * * * * * * * * * * * * * * ;.. . . . . . . . . . . . . . . ",
". . . . . . . . . . . ,.'.* * * * * * * * * * ).. . . . . . . !.~.* * * * * * * * * * * * * * {.U . . . . . . . . . . . . . . . ",
". . . . . . . . . . . . ! * * * * * * * * * * V ;.. . . . . . . ].^.* * * * * * * * * * * * /.(.. . . . . . . . . . . . . . . . ",
". . . . . . . . . . . . _.k * * * * * * * * * * } :.. . . . . . . $.@ @ <.* * * * * * * [.@ g . . . . . . . . . . . . . . . . . ",
". . . . . . . . . . . . . N * * * * * * * * * * * % . . . . . . . . . . }.! ! ! ! ! ! ! 7 . . . . . . . . . . . . . . . . . . . ",
". . . . . . . . . . . . . . 8 |.* * * * * * * * * * ` }.. . . . . . . . . . . . . . . . . . . . . . . . . . . . . . . . . . . . ",
". . . . . . . . . . . . . . . ;.* * * * * * * * * * * <.- . . . . . . . . . . . . . . . . . . . . . . . . . . . . . . . . . . . ",
". . . . . . . . . . . . . . . ] ^ * * * * * * * * * * * 1.2.. . . . . . . . . . . . . . . . . . . . . . . . . . . . . . . . . . ",
". . . . . . . . . . . . . . . . ) { * * * * * * * * * * * 3.4.. . . . . . . . . . . . . . . . . . . . . . . . . . . . . . . . . ",
". . . . . . . . . . . . . . . . . - #.* * * * * * * * * * * 5.! ] . . . . . . . . . . . . . . . . . . . . . . . . . . . . . . . ",
". . . . . . . . . . . . . . . . . . ..u * * * * * * * * * * * * 6.7.. . . . . . . . . . . . . . . . . . . . . . . . . . . . . . ",
". . . . . . . . . . . . . . . . . . . d 8.* * * * * * * * * * * * 9.% 0.. . . . . . . . . . . . . . . . . . . . . . . . . . . . ",
". . . . . . . . . . . . . . . . . . . . a.b.* * * * * * * * * * * * * c.d.. . . . . . . . . . . . . . . . . . . . . . . . . . . ",
". . . . . . . . . . . . . . . . . . . . . . s , * * * * * * * * * * * * * * 4 ! ! ! ! ! ! e.. . . . . . . . . . . . . . . . . . ",
". . . . . . . . . . . . . . . . . . . . . . . - f.* * * * * * * * * * * * * * * * * * * * g.@ h.. . . . . . . . . . . . . . . . ",
". . . . . . . . . . . . . . . . . . . . . . . . i.* * * * * * * * * * * * * * * * * * * * * * B ,.. . . . . . . . . . . . . . . ",
". . . . . . . . . . . . . . . . . . . . . . . . _.! j.* * * * * * * * * * * * * * * * * * * * * |.8 . . . . . . . . . . . . . . ",
". . . . . . . . . . . . . . . . . . . . . . . . . . . d.' S * * * * * * * * * * * * * * * * * * * T . . . . . . . . . . . . . . ",
". . . . . . . . . . . . . . . . . . . . . . . . . . . . . k.9.* * * * * * * * * * * * * * * * * * T . . . . . . . . . . . . . . ",
". . . . . . . . . . . . . . . . . . . . . . . . . . . . . . 7.6.* * * * * * * * * * * * * * * * l./ . . . . . . . . . . . . . . ",
". . . . . . . . . . . . . . . . . . . . . . . . . . . . . . . ] ! ! ).* * * * * * * * * * * * * ;.. . . . . . . . . . . . . . . ",
". . . . . . . . . . . . . . . . . . . . . . . . . . . . . . . . . . . . m.' ' ' ' ' ' ' ' ' ' $.. . . . . . . . . . . . . . . . ",
". . . . . . . . . . . . . . . . . . . . . . . . . . . . . . . . . . . . . . . . . . . . . . . . . . . . . . . . . . . . . . . . ",
". . . . . . . . . . . . . . . . . . . . . . . . . . . . . . . . . . . . . . . . . . . . . . . . . . . . . . . . . . . . . . . . ",
". . . . . . . . . . . . . . . . . . . . . . . . . . . . . . . . . . . . . . . . . . . . . . . . . . . . . . . . . . . . . . . . "};
